<?xml version="1.0" encoding="utf-8"?>
<!-- Generator: Adobe Illustrator 21.1.0, SVG Export Plug-In . SVG Version: 6.00 Build 0)  -->
<svg version="1.1" id="圖層_1" xmlns="http://www.w3.org/2000/svg" xmlns:xlink="http://www.w3.org/1999/xlink" x="0px" y="0px"
	 viewBox="0 0 512 512" style="enable-background:new 0 0 512 512;" xml:space="preserve">
<style type="text/css">
	.st0{fill:#54D3D0;}
	.st1{fill:#FCECDB;}
	.st2{fill:#FFFFFF;}
	.st3{fill:#35190E;}
	.st4{fill:#FFA81D;}
</style>
<circle class="st0" cx="256.7" cy="255.6" r="212.6"/>
<g>
	<g>
		<g>
			<path class="st1" d="M242.8,318.6h27.8c-3.9-67.5,13.6-136.1,49.1-193.6c-19.4-6.9-40.7-10.3-63-10.3c-22.3,0-43.6,3.4-63,10.3
				C229.2,182.5,246.8,251.1,242.8,318.6z"/>
			<g>
				<path class="st2" d="M341.8,283.2c26.4-7.5,50.6-22.1,69.8-41.6c-0.8-6-1.9-12-3.4-17.9c-12.7-51.3-45.9-83.6-88.5-98.7
					c-35.5,57.5-53,126.1-49.1,193.6h-27.8c3.9-67.5-13.6-136.1-49.1-193.6c-42.6,15.1-75.8,47.4-88.5,98.7
					c-1.5,5.9-2.6,11.9-3.4,17.9c19.3,19.5,43.5,34.1,69.8,41.6c-24.3,0.2-45.9,19.9-58.4,43.7c22.9,51.5,74.5,78.4,143.5,78.4
					s120.5-26.9,143.5-78.4C387.6,303.1,366,283.5,341.8,283.2z"/>
				<path class="st1" d="M171.6,283.2c-26.4-7.5-50.6-22.1-69.8-41.6c-2.3,17.4-1.9,34.8,1.2,51.9c0.1,0.5,0.2,1,0.3,1.5
					c2.2,11.5,5.5,22.1,9.9,31.9C125.8,303.1,147.4,283.5,171.6,283.2z"/>
				<path class="st1" d="M410.4,293.5c3.1-17,3.6-34.5,1.2-51.9c-19.3,19.5-43.5,34.1-69.8,41.6c24.3,0.2,45.9,19.9,58.4,43.7
					c4.3-9.8,7.7-20.4,9.9-31.9C410.1,294.5,410.3,294,410.4,293.5z M403,252.1c0.4,1.1,0.8,2.2,1.2,3.3
					C403.8,254.3,403.4,253.2,403,252.1z"/>
			</g>
		</g>
		<g>
			<g>
				<circle class="st3" cx="180.5" cy="277.3" r="18"/>
				<g>
					<path class="st2" d="M170.1,277.3c-0.8-3,0.3-6.5,2.6-8.7c2.3-2.3,5.7-3.4,8.7-2.6c-1.5,0.4-2.8,0.9-4,1.6
						c-1.2,0.7-2.3,1.5-3.3,2.4c-1,1-1.8,2.1-2.4,3.3C171,274.4,170.5,275.8,170.1,277.3z"/>
				</g>
			</g>
			<g>
				<circle class="st3" cx="331.9" cy="277.3" r="18"/>
				<g>
					<path class="st2" d="M321.5,277.3c-0.8-3,0.3-6.5,2.6-8.7c2.3-2.3,5.7-3.4,8.7-2.6c-1.5,0.4-2.8,0.9-4,1.6
						c-1.2,0.7-2.3,1.5-3.3,2.4c-1,1-1.8,2.1-2.4,3.3C322.4,274.4,321.9,275.8,321.5,277.3z"/>
				</g>
			</g>
		</g>
	</g>
	<path class="st4" d="M230.5,329.2c0-8.8,52.4-8.8,52.4,0c0,8.8-11.7,15.9-26.2,15.9C242.2,345.1,230.5,338,230.5,329.2z"/>
	<path class="st1" d="M242,116.2c3.8-9.1,7.7-18.1,11.5-27.2c1.6-3.7,3.2-7.4,5.9-10.3c8.3-8.6,24.9-4.3,29.8,6.7
		c4.9,11-1,24.8-11.3,30.9c-10.3,6.2-23.6,5.6-34.7,0.9"/>
	<path class="st4" d="M309.5,323.3c0,14-105.6,14-105.6,0s23.6-25.4,52.8-25.4C285.9,297.9,309.5,309.3,309.5,323.3z"/>
</g>
</svg>
