<?xml version="1.0" encoding="utf-8"?>
<!-- Generator: Adobe Illustrator 21.1.0, SVG Export Plug-In . SVG Version: 6.00 Build 0)  -->
<svg version="1.1" id="圖層_1" xmlns="http://www.w3.org/2000/svg" xmlns:xlink="http://www.w3.org/1999/xlink" x="0px" y="0px"
	 viewBox="0 0 512 512" style="enable-background:new 0 0 512 512;" xml:space="preserve">
<style type="text/css">
	.st0{fill:#E6B718;}
	.st1{fill:#F4C61B;}
	.st2{fill:#FFDD53;}
	.st3{fill:#DFB114;}
	.st4{fill:#CA9C13;}
	.st5{fill:#FBCC33;}
</style>
<g id="XMLID_21_">
	<path id="XMLID_148_" class="st0" d="M256.8,385.2C159.2,385.2,80,365,80,344.4v47.6c0.1,20.7,79.2,40.8,176.9,40.8
		s176.8-20.2,176.9-40.8v-47.6C433.7,365,354.5,385.2,256.8,385.2"/>
	<path id="XMLID_147_" class="st1" d="M236.4,310.3c-97.7,0-176.9-20.1-176.9-40.8v47.6c0.1,20.7,79.2,40.8,176.9,40.8
		s176.8-20.2,176.9-40.8v-47.6C413.3,290.2,334.1,310.3,236.4,310.3"/>
	<path id="XMLID_146_" class="st0" d="M277.3,235.5c-97.7,0-176.9-20.1-176.9-40.8v47.6c0.1,20.7,79.2,40.8,176.9,40.8
		s176.8-20.2,176.9-40.8v-47.6C454.1,215.4,374.9,235.5,277.3,235.5"/>
	<path id="XMLID_145_" class="st2" d="M413.3,114c0,20.7-79.2,39.9-176.9,39.9S59.6,134.6,59.6,114c0-20.7,79.2-34.9,176.9-34.9
		S413.3,93.3,413.3,114"/>
	<path id="XMLID_144_" class="st1" d="M236.4,153.9c-97.7,0-176.9-20.1-176.9-40.8v47.6c0.1,20.7,79.2,40.8,176.9,40.8
		s176.8-20.2,176.9-40.8v-47.6C413.3,133.7,334.1,153.9,236.4,153.9"/>
	<path id="XMLID_143_" class="st3" d="M86.8,134v47.6c4.1,1.5,8.7,3,13.6,4.4v-47.6C95.5,137,90.9,135.5,86.8,134"/>
	<path id="XMLID_142_" class="st3" d="M372.5,138.4V186c4.9-1.4,9.5-2.9,13.6-4.4V134C382,135.5,377.4,137,372.5,138.4"/>
	<path id="XMLID_141_" class="st3" d="M120.8,143.3v47.6c4.4,0.9,8.9,1.8,13.6,2.6v-47.6C129.7,145.1,125.2,144.2,120.8,143.3"/>
	<path id="XMLID_140_" class="st3" d="M338.5,145.9v47.6c4.7-0.8,9.3-1.7,13.6-2.6v-47.6C347.7,144.2,343.2,145.1,338.5,145.9"/>
	<path id="XMLID_139_" class="st3" d="M154.8,148.9v47.6c4.4,0.6,9,1.1,13.6,1.6v-47.6C163.8,150,159.2,149.5,154.8,148.9"/>
	<path id="XMLID_138_" class="st3" d="M304.5,150.5v47.6c4.6-0.5,9.2-1,13.6-1.6v-47.6C313.6,149.5,309.1,150,304.5,150.5"/>
	<path id="XMLID_137_" class="st3" d="M188.8,152.2v47.6c4.5,0.3,9,0.6,13.6,0.8v-47.6C197.8,152.8,193.3,152.6,188.8,152.2"/>
	<path id="XMLID_136_" class="st3" d="M270.5,153.1v47.6c4.6-0.2,9.1-0.5,13.6-0.8v-47.6C279.6,152.6,275.1,152.8,270.5,153.1"/>
	<path id="XMLID_135_" class="st3" d="M236.4,153.9c-2.3,0-4.5,0-6.8,0v47.6c2.3,0,4.5,0,6.8,0s4.5,0,6.8,0v-47.6
		C241,153.9,238.7,153.9,236.4,153.9"/>
	<path id="XMLID_134_" class="st4" d="M127.6,215.6v47.6c4.1,1.5,8.7,3,13.6,4.4V220C136.3,218.6,131.7,217.1,127.6,215.6"/>
	<path id="XMLID_133_" class="st4" d="M413.3,220v47.6c4.9-1.4,9.5-2.9,13.6-4.4v-47.6C422.8,217.1,418.2,218.6,413.3,220"/>
	<path id="XMLID_132_" class="st4" d="M161.6,224.9v47.6c4.4,0.9,8.9,1.8,13.6,2.6v-47.6C170.5,226.7,166,225.8,161.6,224.9"/>
	<path id="XMLID_131_" class="st4" d="M379.3,227.5v47.6c4.7-0.8,9.3-1.7,13.6-2.6v-47.6C388.5,225.8,384,226.7,379.3,227.5"/>
	<path id="XMLID_130_" class="st4" d="M195.6,230.6v47.6c4.4,0.6,9,1.1,13.6,1.6v-47.6C204.6,231.6,200.1,231.1,195.6,230.6"/>
	<path id="XMLID_129_" class="st4" d="M345.3,232.1v47.6c4.6-0.5,9.2-1,13.6-1.6v-47.6C354.4,231.1,349.9,231.7,345.3,232.1"/>
	<path id="XMLID_128_" class="st4" d="M229.6,233.9v47.6c4.5,0.3,9,0.6,13.6,0.8v-47.6C238.6,234.5,234.1,234.2,229.6,233.9"/>
	<path id="XMLID_127_" class="st4" d="M311.3,234.7v47.6c4.6-0.2,9.1-0.5,13.6-0.8v-47.6C320.4,234.2,315.9,234.5,311.3,234.7"/>
	<path id="XMLID_126_" class="st4" d="M277.3,235.5c-2.3,0-4.5,0-6.8,0v47.6c2.3,0,4.5,0,6.8,0c2.3,0,4.5,0,6.8,0v-47.6
		C281.8,235.5,279.5,235.5,277.3,235.5"/>
	<path id="XMLID_125_" class="st3" d="M86.8,290.4V338c4.1,1.5,8.7,3,13.6,4.4v-47.6C95.5,293.4,90.9,292,86.8,290.4"/>
	<path id="XMLID_124_" class="st3" d="M372.5,294.8v47.6c4.9-1.4,9.5-2.9,13.6-4.4v-47.6C382,292,377.4,293.4,372.5,294.8"/>
	<path id="XMLID_123_" class="st3" d="M120.8,299.8v47.6c4.4,0.9,8.9,1.8,13.6,2.6v-47.6C129.7,301.5,125.2,300.7,120.8,299.8"/>
	<path id="XMLID_122_" class="st3" d="M338.5,302.3v47.6c4.7-0.8,9.3-1.7,13.6-2.6v-47.6C347.7,300.7,343.2,301.5,338.5,302.3"/>
	<path id="XMLID_121_" class="st3" d="M154.8,305.4V353c4.4,0.6,9,1.1,13.6,1.6V307C163.8,306.5,159.2,305.9,154.8,305.4"/>
	<path id="XMLID_120_" class="st3" d="M304.5,306.9v47.6c4.6-0.5,9.2-1,13.6-1.6v-47.6C313.6,305.9,309.1,306.5,304.5,306.9"/>
	<path id="XMLID_119_" class="st3" d="M188.8,308.7v47.6c4.5,0.3,9,0.6,13.6,0.8v-47.6C197.8,309.3,193.3,309,188.8,308.7"/>
	<path id="XMLID_118_" class="st3" d="M270.5,309.5v47.6c4.6-0.2,9.1-0.5,13.6-0.8v-47.6C279.6,309,275.1,309.3,270.5,309.5"/>
	<path id="XMLID_117_" class="st3" d="M236.4,310.3c-2.3,0-4.5,0-6.8,0v47.6c2.3,0,4.5,0,6.8,0s4.5,0,6.8,0v-47.6
		C241,310.3,238.7,310.3,236.4,310.3"/>
	<path id="XMLID_116_" class="st4" d="M107.2,365.3v47.6c4.1,1.5,8.7,3,13.6,4.4v-47.6C115.9,368.3,111.3,366.8,107.2,365.3"/>
	<path id="XMLID_115_" class="st4" d="M392.9,369.7v47.6c4.9-1.4,9.5-2.9,13.6-4.4v-47.6C402.4,366.8,397.8,368.3,392.9,369.7"/>
	<path id="XMLID_114_" class="st4" d="M141.2,374.6v47.6c4.4,0.9,8.9,1.8,13.6,2.6v-47.6C150.1,376.4,145.6,375.5,141.2,374.6"/>
	<path id="XMLID_113_" class="st4" d="M358.9,377.2v47.6c4.7-0.8,9.3-1.7,13.6-2.6v-47.6C368.1,375.5,363.6,376.4,358.9,377.2"/>
	<path id="XMLID_112_" class="st4" d="M175.2,380.2v47.6c4.4,0.6,9,1.1,13.6,1.6v-47.6C184.2,381.3,179.7,380.8,175.2,380.2"/>
	<path id="XMLID_111_" class="st4" d="M324.9,381.8v47.6c4.6-0.5,9.2-1,13.6-1.6v-47.6C334,380.8,329.5,381.3,324.9,381.8"/>
	<path id="XMLID_110_" class="st4" d="M209.2,383.5v47.6c4.5,0.3,9,0.6,13.6,0.8v-47.6C218.2,384.1,213.7,383.8,209.2,383.5"/>
	<path id="XMLID_109_" class="st4" d="M290.9,384.3V432c4.6-0.2,9.1-0.5,13.6-0.8v-47.6C300,383.8,295.5,384.1,290.9,384.3"/>
	<path id="XMLID_108_" class="st4" d="M256.8,385.2c-2.3,0-4.5,0-6.8,0v47.6c2.3,0,4.5,0,6.8,0c2.3,0,4.5,0,6.8,0v-47.6
		C261.4,385.1,259.1,385.2,256.8,385.2"/>
	<path id="XMLID_107_" class="st5" d="M407.9,326.5c-19.3,17-88.8,31.5-171.5,31.5c-64.7,0-121.2-8.9-152.1-20.8
		c-2.8,2.6-4.4,5.3-4.4,8.1c0,20.7,79.2,39.9,176.9,39.9c97.7,0,176.9-19.3,176.9-39.9C433.7,338.1,424.3,331.8,407.9,326.5"/>
	<path id="XMLID_106_" class="st2" d="M277.3,283.1c-89.9,0-164-17.1-175.3-35.9c-26.4,6-42.4,13.9-42.4,23.2
		c0,20.7,79.2,39.9,176.9,39.9s176.9-19.3,176.9-39.9c0-0.9-0.2-1.8-0.5-2.7C380.4,276.9,331.7,283.1,277.3,283.1"/>
	<path id="XMLID_105_" class="st5" d="M406.5,171.2c-21.2,16.5-89.2,30.3-170,30.3c-52.2,0-99-5.8-131.4-14.3
		c-3,2.7-4.6,5.4-4.6,8.4c0,20.7,79.2,39.9,176.9,39.9s176.9-19.3,176.9-39.9C454.1,185.7,436,177.3,406.5,171.2"/>
</g>
</svg>
