<?xml version="1.0" encoding="utf-8"?>
<!-- Generator: Adobe Illustrator 21.1.0, SVG Export Plug-In . SVG Version: 6.00 Build 0)  -->
<svg version="1.1" id="圖層_1" xmlns="http://www.w3.org/2000/svg" xmlns:xlink="http://www.w3.org/1999/xlink" x="0px" y="0px"
	 viewBox="0 0 1247.5 512" style="enable-background:new 0 0 1247.5 512;" xml:space="preserve">
<style type="text/css">
	.st0{fill:#00BFA5;}
	.st1{fill:#FFFFFF;}
</style>
<circle class="st0" cx="258" cy="256" r="250"/>
<g>
	<path class="st1" d="M276.2,341.4L381,181h-94.8v-37.4H436v26.7L331.5,330.7h105.7v37.7h-161V341.4z"/>
</g>
<g>
	<path class="st1" d="M532.1,162.5h33.6v46.3l-1.4,24.2c10.4-9.7,23-18.9,40.5-18.9c27.9,0,39.9,19.4,39.9,51.8v80.4h-33.9v-76.3
		c0-19.8-5.5-27-18.2-27c-10.6,0-17.3,5.1-27,14.5v88.7h-33.6V162.5z"/>
	<path class="st1" d="M673.1,311.3c0-27.6,22.3-42.2,74.2-47.7c-0.5-12.7-6-22.3-21.9-22.3c-12,0-23.5,5.3-35.5,12.2l-12.2-22.3
		c15.2-9.4,33.6-17,53.9-17c32.7,0,49.5,19.6,49.5,56.9v75.3h-27.6l-2.5-13.8h-0.7c-11.3,9.7-24.2,17-38.9,17
		C688.3,349.5,673.1,333.2,673.1,311.3z M747.3,310.4v-26c-31.3,4.1-41.9,12.7-41.9,24.2c0,10.1,7.1,14.5,17,14.5
		C732,323,739.2,318.4,747.3,310.4z"/>
	<path class="st1" d="M807.6,282c0-43.1,29.7-68,62-68s62,24.9,62,68c0,42.6-29.7,67.5-62,67.5S807.6,324.7,807.6,282z M897,282
		c0-24.4-9.9-40.3-27.4-40.3c-17.5,0-27.4,15.9-27.4,40.3c0,24.2,9.9,39.9,27.4,39.9C887.1,321.9,897,306.2,897,282z"/>
	<path class="st1" d="M951.8,282c0-43.1,29.7-68,62-68s62,24.9,62,68c0,42.6-29.7,67.5-62,67.5S951.8,324.7,951.8,282z M1041.2,282
		c0-24.4-9.9-40.3-27.4-40.3c-17.5,0-27.4,15.9-27.4,40.3c0,24.2,9.9,39.9,27.4,39.9C1031.3,321.9,1041.2,306.2,1041.2,282z"/>
	<path class="st1" d="M1096.1,282c0-43.1,29.7-68,62-68c32.3,0,62,24.9,62,68c0,42.6-29.7,67.5-62,67.5
		C1125.8,349.5,1096.1,324.7,1096.1,282z M1185.4,282c0-24.4-9.9-40.3-27.4-40.3c-17.5,0-27.4,15.9-27.4,40.3
		c0,24.2,9.9,39.9,27.4,39.9C1175.5,321.9,1185.4,306.2,1185.4,282z"/>
</g>
</svg>
